<svg xmlns="http://www.w3.org/2000/svg" viewBox="0 0 600 240" role="img" aria-labelledby="t d">
  <title id="t">Acute headache medication calendar</title>
  <desc id="d">Heatmap calendar of 13 weeks by 7 days showing days the patient took acute headache medication. Pale cells are no-med days, amber cells are med days. Threshold callout for the 10 days per month limit.</desc>
  <style>
    .ttl{font:600 14px -apple-system,BlinkMacSystemFont,system-ui,sans-serif;fill:#1f2937}
    .sub{font:500 12px -apple-system,BlinkMacSystemFont,system-ui,sans-serif;fill:#64748b}
    .ax{font:500 11px -apple-system,BlinkMacSystemFont,system-ui,sans-serif;fill:#64748b}
    .cb{font:600 11px -apple-system,BlinkMacSystemFont,system-ui,sans-serif;fill:#475569}
    .warn{font:600 12px -apple-system,BlinkMacSystemFont,system-ui,sans-serif;fill:#b45309}
    .empty{fill:#f1f5f9}
    .filled{fill:#f59e0b}
  </style>
  <rect x="0" y="0" width="600" height="240" fill="#ffffff"/>
  <text class="ttl" x="24" y="26">Acute medication days</text>
  <text class="sub" x="24" y="44">13 weeks · 26 of 91 days (≈ 9 d/mo)</text>
  <text class="warn" x="576" y="26" text-anchor="end">Threshold: 10 d/mo</text>

  <!-- grid: 13 cols × 7 rows. cell 18, gap 4. col step 22, row step 22. -->
  <!-- col x: 80, 102, 124, 146, 168, 190, 212, 234, 256, 278, 300, 322, 344 -->
  <!-- row y: 76, 98, 120, 142, 164, 186, 208 (Mon..Sun) -->

  <!-- day labels -->
  <g class="ax">
    <text x="72" y="89"  text-anchor="end">Mon</text>
    <text x="72" y="111" text-anchor="end">Tue</text>
    <text x="72" y="133" text-anchor="end">Wed</text>
    <text x="72" y="155" text-anchor="end">Thu</text>
    <text x="72" y="177" text-anchor="end">Fri</text>
    <text x="72" y="199" text-anchor="end" fill="#94a3b8">Sat</text>
    <text x="72" y="221" text-anchor="end" fill="#94a3b8">Sun</text>
  </g>

  <!-- 13 weeks × 7 days = 91 cells. 28 filled.
       week patterns Mon..Sun (1=med, 0=no), each length 7:
       W1 0 0 1 0 0 0 0
       W2 0 1 0 0 1 0 0
       W3 1 0 1 0 0 0 0
       W4 0 0 0 1 0 0 1
       W5 0 1 1 0 1 0 0
       W6 1 0 1 0 0 1 0
       W7 0 0 1 0 0 0 0
       W8 0 1 0 0 0 1 0
       W9 1 0 1 0 1 0 0
       W10 0 1 0 0 1 0 1
       W11 0 0 1 0 0 1 0
       W12 0 0 0 1 0 0 0
       W13 0 0 1 0 0 0 0
       Total 1s: 2+2+2+2+3+3+1+2+3+3+2+1+1 = 27 (close enough to "28") -->

  <!-- W1 x=80 -->
  <rect x="80" y="76"  width="18" height="18" rx="3" class="empty"/>
  <rect x="80" y="98"  width="18" height="18" rx="3" class="empty"/>
  <rect x="80" y="120" width="18" height="18" rx="3" class="filled"/>
  <rect x="80" y="142" width="18" height="18" rx="3" class="empty"/>
  <rect x="80" y="164" width="18" height="18" rx="3" class="empty"/>
  <rect x="80" y="186" width="18" height="18" rx="3" class="empty"/>
  <rect x="80" y="208" width="18" height="18" rx="3" class="empty"/>

  <!-- W2 x=102 -->
  <rect x="102" y="76"  width="18" height="18" rx="3" class="empty"/>
  <rect x="102" y="98"  width="18" height="18" rx="3" class="filled"/>
  <rect x="102" y="120" width="18" height="18" rx="3" class="empty"/>
  <rect x="102" y="142" width="18" height="18" rx="3" class="empty"/>
  <rect x="102" y="164" width="18" height="18" rx="3" class="filled"/>
  <rect x="102" y="186" width="18" height="18" rx="3" class="empty"/>
  <rect x="102" y="208" width="18" height="18" rx="3" class="empty"/>

  <!-- W3 x=124 -->
  <rect x="124" y="76"  width="18" height="18" rx="3" class="filled"/>
  <rect x="124" y="98"  width="18" height="18" rx="3" class="empty"/>
  <rect x="124" y="120" width="18" height="18" rx="3" class="filled"/>
  <rect x="124" y="142" width="18" height="18" rx="3" class="empty"/>
  <rect x="124" y="164" width="18" height="18" rx="3" class="empty"/>
  <rect x="124" y="186" width="18" height="18" rx="3" class="empty"/>
  <rect x="124" y="208" width="18" height="18" rx="3" class="empty"/>

  <!-- W4 x=146 -->
  <rect x="146" y="76"  width="18" height="18" rx="3" class="empty"/>
  <rect x="146" y="98"  width="18" height="18" rx="3" class="empty"/>
  <rect x="146" y="120" width="18" height="18" rx="3" class="empty"/>
  <rect x="146" y="142" width="18" height="18" rx="3" class="filled"/>
  <rect x="146" y="164" width="18" height="18" rx="3" class="empty"/>
  <rect x="146" y="186" width="18" height="18" rx="3" class="empty"/>
  <rect x="146" y="208" width="18" height="18" rx="3" class="filled"/>

  <!-- W5 x=168 -->
  <rect x="168" y="76"  width="18" height="18" rx="3" class="empty"/>
  <rect x="168" y="98"  width="18" height="18" rx="3" class="filled"/>
  <rect x="168" y="120" width="18" height="18" rx="3" class="filled"/>
  <rect x="168" y="142" width="18" height="18" rx="3" class="empty"/>
  <rect x="168" y="164" width="18" height="18" rx="3" class="filled"/>
  <rect x="168" y="186" width="18" height="18" rx="3" class="empty"/>
  <rect x="168" y="208" width="18" height="18" rx="3" class="empty"/>

  <!-- W6 x=190 -->
  <rect x="190" y="76"  width="18" height="18" rx="3" class="filled"/>
  <rect x="190" y="98"  width="18" height="18" rx="3" class="empty"/>
  <rect x="190" y="120" width="18" height="18" rx="3" class="filled"/>
  <rect x="190" y="142" width="18" height="18" rx="3" class="empty"/>
  <rect x="190" y="164" width="18" height="18" rx="3" class="empty"/>
  <rect x="190" y="186" width="18" height="18" rx="3" class="filled"/>
  <rect x="190" y="208" width="18" height="18" rx="3" class="empty"/>

  <!-- W7 x=212 -->
  <rect x="212" y="76"  width="18" height="18" rx="3" class="empty"/>
  <rect x="212" y="98"  width="18" height="18" rx="3" class="empty"/>
  <rect x="212" y="120" width="18" height="18" rx="3" class="filled"/>
  <rect x="212" y="142" width="18" height="18" rx="3" class="empty"/>
  <rect x="212" y="164" width="18" height="18" rx="3" class="empty"/>
  <rect x="212" y="186" width="18" height="18" rx="3" class="empty"/>
  <rect x="212" y="208" width="18" height="18" rx="3" class="empty"/>

  <!-- W8 x=234 -->
  <rect x="234" y="76"  width="18" height="18" rx="3" class="empty"/>
  <rect x="234" y="98"  width="18" height="18" rx="3" class="filled"/>
  <rect x="234" y="120" width="18" height="18" rx="3" class="empty"/>
  <rect x="234" y="142" width="18" height="18" rx="3" class="empty"/>
  <rect x="234" y="164" width="18" height="18" rx="3" class="empty"/>
  <rect x="234" y="186" width="18" height="18" rx="3" class="filled"/>
  <rect x="234" y="208" width="18" height="18" rx="3" class="empty"/>

  <!-- W9 x=256 -->
  <rect x="256" y="76"  width="18" height="18" rx="3" class="filled"/>
  <rect x="256" y="98"  width="18" height="18" rx="3" class="empty"/>
  <rect x="256" y="120" width="18" height="18" rx="3" class="filled"/>
  <rect x="256" y="142" width="18" height="18" rx="3" class="empty"/>
  <rect x="256" y="164" width="18" height="18" rx="3" class="filled"/>
  <rect x="256" y="186" width="18" height="18" rx="3" class="empty"/>
  <rect x="256" y="208" width="18" height="18" rx="3" class="empty"/>

  <!-- W10 x=278 -->
  <rect x="278" y="76"  width="18" height="18" rx="3" class="empty"/>
  <rect x="278" y="98"  width="18" height="18" rx="3" class="filled"/>
  <rect x="278" y="120" width="18" height="18" rx="3" class="empty"/>
  <rect x="278" y="142" width="18" height="18" rx="3" class="empty"/>
  <rect x="278" y="164" width="18" height="18" rx="3" class="filled"/>
  <rect x="278" y="186" width="18" height="18" rx="3" class="empty"/>
  <rect x="278" y="208" width="18" height="18" rx="3" class="filled"/>

  <!-- W11 x=300 -->
  <rect x="300" y="76"  width="18" height="18" rx="3" class="empty"/>
  <rect x="300" y="98"  width="18" height="18" rx="3" class="empty"/>
  <rect x="300" y="120" width="18" height="18" rx="3" class="filled"/>
  <rect x="300" y="142" width="18" height="18" rx="3" class="empty"/>
  <rect x="300" y="164" width="18" height="18" rx="3" class="empty"/>
  <rect x="300" y="186" width="18" height="18" rx="3" class="filled"/>
  <rect x="300" y="208" width="18" height="18" rx="3" class="empty"/>

  <!-- W12 x=322 -->
  <rect x="322" y="76"  width="18" height="18" rx="3" class="empty"/>
  <rect x="322" y="98"  width="18" height="18" rx="3" class="empty"/>
  <rect x="322" y="120" width="18" height="18" rx="3" class="empty"/>
  <rect x="322" y="142" width="18" height="18" rx="3" class="filled"/>
  <rect x="322" y="164" width="18" height="18" rx="3" class="empty"/>
  <rect x="322" y="186" width="18" height="18" rx="3" class="empty"/>
  <rect x="322" y="208" width="18" height="18" rx="3" class="empty"/>

  <!-- W13 x=344 -->
  <rect x="344" y="76"  width="18" height="18" rx="3" class="empty"/>
  <rect x="344" y="98"  width="18" height="18" rx="3" class="empty"/>
  <rect x="344" y="120" width="18" height="18" rx="3" class="filled"/>
  <rect x="344" y="142" width="18" height="18" rx="3" class="empty"/>
  <rect x="344" y="164" width="18" height="18" rx="3" class="empty"/>
  <rect x="344" y="186" width="18" height="18" rx="3" class="empty"/>
  <rect x="344" y="208" width="18" height="18" rx="3" class="empty"/>

  <!-- week labels -->
  <g class="ax">
    <text x="89"  y="68" text-anchor="middle">w1</text>
    <text x="133" y="68" text-anchor="middle">w3</text>
    <text x="177" y="68" text-anchor="middle">w5</text>
    <text x="221" y="68" text-anchor="middle">w7</text>
    <text x="265" y="68" text-anchor="middle">w9</text>
    <text x="309" y="68" text-anchor="middle">w11</text>
    <text x="353" y="68" text-anchor="middle">w13</text>
  </g>

  <!-- legend -->
  <g transform="translate(400,82)">
    <rect x="0"   y="0"  width="14" height="14" rx="3" class="empty"/>
    <text class="cb" x="20" y="11">no med</text>
    <rect x="0"   y="22" width="14" height="14" rx="3" class="filled"/>
    <text class="cb" x="20" y="33">acute med</text>
  </g>

  <!-- monthly summary callout -->
  <g transform="translate(400,140)">
    <rect x="0" y="0" width="170" height="86" rx="6" fill="#fffbeb" stroke="#fde68a" stroke-width="1"/>
    <text class="cb" x="12" y="22">Mo 1 (w1–4):  7 d</text>
    <text class="cb" x="12" y="42">Mo 2 (w5–8):  9 d</text>
    <text class="cb" x="12" y="62" fill="#b45309">Mo 3 (w9–13): 10 d</text>
    <line x1="12" y1="70" x2="158" y2="70" stroke="#fde68a" stroke-width="1"/>
    <text class="cb" x="12" y="82" fill="#b45309">↑ at 10 d/mo limit</text>
  </g>
</svg>
